<svg width="380" height="55" viewBox="0 0 380 55" fill="none" xmlns="http://www.w3.org/2000/svg">
<path d="M41.202 43.36C41.074 45.1947 40.5193 46.4747 39.538 47.2C38.5567 47.9253 37.3833 48.288 36.018 48.288C34.0553 48.288 32.3273 47.776 30.834 46.752C29.3833 45.7707 28.2313 44.7253 27.378 43.616C25.33 44.0427 23.4953 44.2773 21.874 44.32C20.2953 44.4053 18.7167 44.32 17.138 44.064C15.602 43.8507 13.874 43.5093 11.954 43.04C11.7407 42.9547 11.5487 42.848 11.378 42.72C11.25 42.5493 11.122 42.3787 10.994 42.208C10.738 41.952 10.4607 41.7173 10.162 41.504C9.86333 41.2907 9.394 41.2267 8.754 41.312C6.27933 38.88 4.29533 36.0427 2.802 32.8C1.30867 29.5147 0.69 25.6107 0.946 21.088C1.074 18.912 1.394 16.864 1.906 14.944C2.33267 13.4507 2.84467 12.064 3.442 10.784C4.082 9.46133 4.80733 8.26667 5.618 7.2C6.98333 5.45066 8.66867 4.02133 10.674 2.912C12.722 1.80266 14.9193 1.056 17.266 0.671997C19.6553 0.245331 22.002 0.223998 24.306 0.607998C26.61 0.991998 28.6793 1.824 30.514 3.104C32.2633 4.29867 33.8633 5.94133 35.314 8.032C36.7647 10.08 37.874 12.4053 38.642 15.008C39.154 16.7147 39.474 18.5067 39.602 20.384C39.7727 22.2187 39.7087 24.1173 39.41 26.08C39.1113 28 38.5353 29.9413 37.682 31.904C36.8713 33.824 35.9113 35.5947 34.802 37.216C33.6927 38.7947 32.562 40.0747 31.41 41.056C31.922 42.208 32.7327 43.0187 33.842 43.488C34.994 43.9573 36.2313 44.1493 37.554 44.064C38.8767 43.9787 40.0927 43.744 41.202 43.36ZM33.586 23.712C33.586 20.8107 33.2233 17.9093 32.498 15.008C31.858 12.3627 30.9407 10.016 29.746 7.968C28.5513 5.87733 27.122 4.49066 25.458 3.808C23.794 3.08266 22.0233 2.93333 20.146 3.36C18.3113 3.744 16.6047 4.40533 15.026 5.344C13.49 6.28267 12.274 7.264 11.378 8.288C10.6953 9.09866 10.0127 10.1013 9.33 11.296C8.69 12.448 8.178 13.664 7.794 14.944C7.62333 15.4133 7.51667 15.8187 7.474 16.16C7.13267 17.7387 6.87667 19.488 6.706 21.408C6.578 23.328 6.59933 25.248 6.77 27.168C6.94067 29.0453 7.282 30.7733 7.794 32.352C8.306 33.9307 9.074 35.1467 10.098 36C10.994 34.6347 12.0607 33.3973 13.298 32.288C14.5353 31.1787 16.0073 30.5813 17.714 30.496C19.2927 30.4107 20.6793 30.7093 21.874 31.392C23.0687 32.0747 24.1353 32.9493 25.074 34.016C26.0127 35.04 26.866 36.064 27.634 37.088C27.8047 37.3013 27.9753 37.5147 28.146 37.728C28.3167 37.9413 28.4873 38.1547 28.658 38.368C29.9807 37.5573 30.9833 36.3627 31.666 34.784C32.3913 33.2053 32.882 31.4347 33.138 29.472C33.4367 27.5093 33.586 25.5893 33.586 23.712ZM25.458 40.544C24.9887 40.032 24.498 39.392 23.986 38.624C23.5167 37.856 22.962 37.088 22.322 36.32C21.7247 35.552 20.978 34.976 20.082 34.592C18.9727 34.0373 17.8207 33.952 16.626 34.336C15.4313 34.6773 14.45 35.2533 13.682 36.064C12.914 36.8747 12.5727 37.728 12.658 38.624C12.786 39.776 13.554 40.6293 14.962 41.184C16.4127 41.7387 17.97 42.016 19.634 42.016C20.786 42.016 21.8953 41.9093 22.962 41.696C24.0287 41.44 24.8607 41.056 25.458 40.544ZM81.2835 42.72C81.0702 43.36 80.6435 43.7867 80.0035 44C79.4062 44.2133 78.7235 44.3413 77.9555 44.384C77.5715 44.384 77.1662 44.3627 76.7395 44.32C76.3128 44.32 75.9075 44.32 75.5235 44.32C75.1822 44.2773 74.8408 44.256 74.4995 44.256C74.2008 44.256 73.9235 44.256 73.6675 44.256C73.0275 43.9573 72.6648 43.5093 72.5795 42.912C72.5368 42.272 72.5582 41.5893 72.6435 40.864C72.6435 40.5653 72.6435 40.2667 72.6435 39.968C72.6862 39.6693 72.7075 39.3707 72.7075 39.072C72.1955 39.328 71.7048 39.648 71.2355 40.032C70.8088 40.3733 70.3608 40.736 69.8915 41.12C68.9528 41.888 67.9288 42.6133 66.8195 43.296C65.7528 43.9787 64.3875 44.2987 62.7235 44.256C61.8275 44.2133 61.1022 44.0213 60.5475 43.68C59.9928 43.296 59.2462 43.0613 58.3075 42.976C57.0702 41.4827 56.2595 39.712 55.8755 37.664C55.4915 35.616 55.2782 33.44 55.2355 31.136C55.2355 30.24 55.2355 29.3227 55.2355 28.384C55.2782 27.4027 55.3208 26.4427 55.3635 25.504C55.4062 24.1813 55.4275 22.88 55.4275 21.6C55.4702 20.32 55.4488 19.0613 55.3635 17.824C55.1928 17.824 55.0008 17.8453 54.7875 17.888C54.5742 17.888 54.3608 17.9093 54.1475 17.952C53.6782 18.0373 53.2088 18.08 52.7395 18.08C52.3128 18.08 51.9715 17.9093 51.7155 17.568C51.7582 16.8427 51.9928 16.2667 52.4195 15.84C52.8888 15.4133 53.4648 15.1147 54.1475 14.944C54.4888 14.8587 54.8302 14.7947 55.1715 14.752C55.5555 14.7093 55.9182 14.688 56.2595 14.688C56.6435 14.688 57.0275 14.7093 57.4115 14.752C57.7955 14.7947 58.1582 14.8587 58.4995 14.944C59.5662 15.2 60.3128 15.584 60.7395 16.096C60.0568 18.4 59.6302 21.0027 59.4595 23.904C59.3315 26.8053 59.2888 29.8347 59.3315 32.992C59.3742 34.0587 59.4595 35.1467 59.5875 36.256C59.7155 37.3227 59.9502 38.2827 60.2915 39.136C60.6755 39.9467 61.1662 40.48 61.7635 40.736C62.7448 41.12 63.7688 41.2267 64.8355 41.056C65.9022 40.8853 66.9048 40.544 67.8435 40.032C68.7822 39.52 69.5288 38.944 70.0835 38.304C70.8942 37.408 71.4915 36.32 71.8755 35.04C72.3022 33.76 72.5795 32.3733 72.7075 30.88C72.8355 29.3867 72.8782 27.8293 72.8355 26.208C72.7928 24.5867 72.7288 23.008 72.6435 21.472C72.6435 20.96 72.6222 20.4693 72.5795 20C72.5368 19.488 72.5155 18.9973 72.5155 18.528C72.3448 18.528 72.0888 18.5493 71.7475 18.592C71.2355 18.6347 70.7022 18.6347 70.1475 18.592C69.5928 18.5067 69.1662 18.1653 68.8675 17.568C68.9528 17.2693 69.0382 17.0133 69.1235 16.8C69.2515 16.544 69.3155 16.224 69.3155 15.84C70.0408 15.7547 70.7448 15.6267 71.4275 15.456C72.1102 15.2427 72.7502 15.072 73.3475 14.944C73.9875 14.816 74.5848 14.752 75.1395 14.752C75.3955 14.752 75.6302 14.7733 75.8435 14.816C76.0995 14.8587 76.3342 14.9227 76.5475 15.008C77.1875 15.2213 77.7635 15.584 78.2755 16.096C77.7208 16.2667 77.4222 16.672 77.3795 17.312C77.3795 17.952 77.2302 18.5067 76.9315 18.976C77.0168 20.768 77.0595 22.816 77.0595 25.12C77.1022 27.424 77.1235 29.7707 77.1235 32.16C77.1235 32.6293 77.1022 33.0987 77.0595 33.568C77.0595 33.9947 77.0382 34.4427 76.9955 34.912C76.9102 36.064 76.8675 37.152 76.8675 38.176C76.9102 39.1573 77.2302 40.0107 77.8275 40.736C78.4675 40.992 79.0648 41.312 79.6195 41.696C80.1742 42.0373 80.7288 42.3787 81.2835 42.72ZM107.677 42.464C107.677 42.8907 107.271 43.2107 106.461 43.424C105.65 43.6373 104.669 43.7867 103.517 43.872C102.407 43.9147 101.341 43.936 100.317 43.936C100.018 43.936 99.7192 43.9573 99.4205 44C99.1218 44 98.8658 44 98.6525 44C98.5245 44 98.2472 43.9573 97.8205 43.872C97.4365 43.744 97.0098 43.6587 96.5405 43.616C96.0712 43.5307 95.6232 43.5947 95.1965 43.808C94.6418 43.5093 94.3858 43.2107 94.4285 42.912C94.4712 42.5707 94.5565 42.2293 94.6845 41.888C94.7698 41.76 94.8338 41.6107 94.8765 41.44C94.9192 41.2693 94.9405 41.12 94.9405 40.992C95.6658 40.6507 96.3912 40.352 97.1165 40.096C97.8845 39.84 98.4605 39.392 98.8445 38.752C98.8445 36.2347 98.8232 33.9093 98.7805 31.776C98.7805 29.6 98.7805 27.424 98.7805 25.248C98.8232 23.0293 98.8445 20.64 98.8445 18.08C98.4178 17.8667 97.9698 17.76 97.5005 17.76C97.0738 17.76 96.6472 17.7813 96.2205 17.824C95.9645 17.824 95.7298 17.8453 95.5165 17.888C95.3032 17.888 95.1112 17.8667 94.9405 17.824C94.9405 17.6107 94.8978 17.4187 94.8125 17.248C94.7272 17.0773 94.6205 16.9067 94.4925 16.736C94.3218 16.5227 94.2152 16.3093 94.1725 16.096C94.1298 15.8827 94.3005 15.6053 94.6845 15.264C95.1112 15.2213 95.5378 15.1787 95.9645 15.136C96.4338 15.0507 96.9032 14.9867 97.3725 14.944C98.4818 14.816 99.5698 14.7093 100.637 14.624C101.746 14.5387 102.791 14.6027 103.773 14.816V14.944C103.773 17.0773 103.73 19.424 103.645 21.984C103.602 24.544 103.517 27.104 103.389 29.664C103.303 32.224 103.197 34.592 103.069 36.768C103.069 36.8533 103.069 37.024 103.069 37.28C103.026 37.536 103.005 37.8133 103.005 38.112C103.005 38.368 103.026 38.5813 103.069 38.752C103.197 39.2213 103.495 39.6053 103.965 39.904C104.477 40.16 104.989 40.3947 105.501 40.608C106.055 40.8213 106.546 41.0773 106.973 41.376C107.442 41.632 107.677 41.9947 107.677 42.464ZM103.773 5.344C104.242 6.368 104.306 7.28533 103.965 8.096C103.666 8.90666 103.069 9.46133 102.173 9.76C101.277 10.0587 100.167 9.99467 98.8445 9.568C98.0765 8.544 97.7778 7.56266 97.9485 6.624C98.1192 5.68533 98.5032 4.93867 99.1005 4.384C99.7832 3.78667 100.594 3.50933 101.533 3.552C102.514 3.59466 103.261 4.192 103.773 5.344ZM142.439 39.648C142.439 40.032 142.375 40.3947 142.247 40.736C142.161 41.0773 142.076 41.3973 141.991 41.696C141.905 41.9947 141.82 42.2933 141.735 42.592C141.649 42.848 141.628 43.0827 141.671 43.296C139.495 43.4667 137.148 43.5733 134.631 43.616C132.156 43.6587 129.66 43.616 127.143 43.488C124.668 43.36 122.364 43.1253 120.231 42.784C120.017 41.8027 120.103 41.0347 120.487 40.48C120.913 39.9253 121.383 39.392 121.895 38.88C122.108 38.7093 122.321 38.5173 122.535 38.304C122.748 38.0907 122.94 37.8773 123.111 37.664C123.708 36.9387 124.22 36.1067 124.647 35.168C125.073 34.2293 125.564 33.3547 126.119 32.544C127.74 30.24 129.361 27.872 130.983 25.44C132.604 23.008 134.225 20.5547 135.847 18.08C134.951 17.6533 134.033 17.504 133.095 17.632C132.199 17.76 131.26 17.952 130.279 18.208C129.553 18.4213 128.807 18.6133 128.039 18.784C127.313 18.912 126.567 18.9333 125.799 18.848C125.073 19.36 124.583 20.128 124.327 21.152C124.071 22.1333 123.857 23.1787 123.687 24.288C123.516 24.2453 123.367 24.2667 123.239 24.352C123.111 24.3947 122.983 24.4373 122.855 24.48C122.727 24.608 122.577 24.6933 122.407 24.736C122.279 24.736 122.108 24.6507 121.895 24.48C121.468 23.584 121.276 22.5813 121.319 21.472C121.404 20.32 121.511 19.2107 121.639 18.144C121.681 17.7173 121.724 17.312 121.767 16.928C121.852 16.5013 121.895 16.096 121.895 15.712C122.876 15.7973 123.964 15.8187 125.159 15.776C126.353 15.6907 127.612 15.584 128.935 15.456C131.367 15.2427 133.799 15.136 136.231 15.136C138.705 15.0933 140.775 15.52 142.439 16.416C142.567 16.8 142.567 17.1413 142.439 17.44C142.311 17.696 142.161 17.952 141.991 18.208C141.82 18.464 141.649 18.7413 141.479 19.04C141.351 19.296 141.287 19.6373 141.287 20.064C140.945 20.2347 140.604 20.448 140.263 20.704C139.964 20.9173 139.537 21.024 138.983 21.024C136.764 24.096 134.631 27.2533 132.583 30.496C130.535 33.7387 128.444 36.96 126.311 40.16C126.908 40.16 127.527 40.1813 128.167 40.224C128.807 40.2667 129.425 40.3093 130.023 40.352C131.345 40.48 132.604 40.544 133.799 40.544C134.993 40.544 136.017 40.3093 136.871 39.84C137.511 39.4987 137.98 39.0293 138.279 38.432C138.62 37.792 138.897 37.1307 139.111 36.448C139.367 35.7227 139.665 35.0613 140.007 34.464C140.348 33.824 140.839 33.3547 141.479 33.056C141.905 33.2267 142.183 33.7173 142.311 34.528C142.439 35.296 142.503 36.1707 142.503 37.152C142.503 38.0907 142.481 38.9227 142.439 39.648ZM179.439 39.648C179.439 40.032 179.375 40.3947 179.247 40.736C179.161 41.0773 179.076 41.3973 178.991 41.696C178.905 41.9947 178.82 42.2933 178.735 42.592C178.649 42.848 178.628 43.0827 178.671 43.296C176.495 43.4667 174.148 43.5733 171.631 43.616C169.156 43.6587 166.66 43.616 164.143 43.488C161.668 43.36 159.364 43.1253 157.231 42.784C157.017 41.8027 157.103 41.0347 157.487 40.48C157.913 39.9253 158.383 39.392 158.895 38.88C159.108 38.7093 159.321 38.5173 159.535 38.304C159.748 38.0907 159.94 37.8773 160.111 37.664C160.708 36.9387 161.22 36.1067 161.647 35.168C162.073 34.2293 162.564 33.3547 163.119 32.544C164.74 30.24 166.361 27.872 167.983 25.44C169.604 23.008 171.225 20.5547 172.847 18.08C171.951 17.6533 171.033 17.504 170.095 17.632C169.199 17.76 168.26 17.952 167.279 18.208C166.553 18.4213 165.807 18.6133 165.039 18.784C164.313 18.912 163.567 18.9333 162.799 18.848C162.073 19.36 161.583 20.128 161.327 21.152C161.071 22.1333 160.857 23.1787 160.687 24.288C160.516 24.2453 160.367 24.2667 160.239 24.352C160.111 24.3947 159.983 24.4373 159.855 24.48C159.727 24.608 159.577 24.6933 159.407 24.736C159.279 24.736 159.108 24.6507 158.895 24.48C158.468 23.584 158.276 22.5813 158.319 21.472C158.404 20.32 158.511 19.2107 158.639 18.144C158.681 17.7173 158.724 17.312 158.767 16.928C158.852 16.5013 158.895 16.096 158.895 15.712C159.876 15.7973 160.964 15.8187 162.159 15.776C163.353 15.6907 164.612 15.584 165.935 15.456C168.367 15.2427 170.799 15.136 173.231 15.136C175.705 15.0933 177.775 15.52 179.439 16.416C179.567 16.8 179.567 17.1413 179.439 17.44C179.311 17.696 179.161 17.952 178.991 18.208C178.82 18.464 178.649 18.7413 178.479 19.04C178.351 19.296 178.287 19.6373 178.287 20.064C177.945 20.2347 177.604 20.448 177.263 20.704C176.964 20.9173 176.537 21.024 175.983 21.024C173.764 24.096 171.631 27.2533 169.583 30.496C167.535 33.7387 165.444 36.96 163.311 40.16C163.908 40.16 164.527 40.1813 165.167 40.224C165.807 40.2667 166.425 40.3093 167.023 40.352C168.345 40.48 169.604 40.544 170.799 40.544C171.993 40.544 173.017 40.3093 173.871 39.84C174.511 39.4987 174.98 39.0293 175.279 38.432C175.62 37.792 175.897 37.1307 176.111 36.448C176.367 35.7227 176.665 35.0613 177.007 34.464C177.348 33.824 177.839 33.3547 178.479 33.056C178.905 33.2267 179.183 33.7173 179.311 34.528C179.439 35.296 179.503 36.1707 179.503 37.152C179.503 38.0907 179.481 38.9227 179.439 39.648ZM207.927 42.464C207.927 42.8907 207.521 43.2107 206.711 43.424C205.9 43.6373 204.919 43.7867 203.767 43.872C202.657 43.9147 201.591 43.936 200.567 43.936C200.268 43.936 199.969 43.9573 199.671 44C199.372 44 199.116 44 198.903 44C198.775 44 198.497 43.9573 198.071 43.872C197.687 43.744 197.26 43.6587 196.791 43.616C196.321 43.5307 195.873 43.5947 195.447 43.808C194.892 43.5093 194.636 43.2107 194.679 42.912C194.721 42.5707 194.807 42.2293 194.935 41.888C195.02 41.76 195.084 41.6107 195.127 41.44C195.169 41.2693 195.191 41.12 195.191 40.992C195.916 40.6507 196.641 40.352 197.367 40.096C198.135 39.84 198.711 39.392 199.095 38.752C199.095 36.2347 199.073 33.9093 199.031 31.776C199.031 29.6 199.031 27.424 199.031 25.248C199.073 23.0293 199.095 20.64 199.095 18.08C198.668 17.8667 198.22 17.76 197.751 17.76C197.324 17.76 196.897 17.7813 196.47 17.824C196.215 17.824 195.98 17.8453 195.767 17.888C195.553 17.888 195.361 17.8667 195.191 17.824C195.191 17.6107 195.148 17.4187 195.062 17.248C194.977 17.0773 194.871 16.9067 194.743 16.736C194.572 16.5227 194.465 16.3093 194.423 16.096C194.38 15.8827 194.551 15.6053 194.935 15.264C195.361 15.2213 195.788 15.1787 196.215 15.136C196.684 15.0507 197.153 14.9867 197.623 14.944C198.732 14.816 199.82 14.7093 200.887 14.624C201.996 14.5387 203.041 14.6027 204.023 14.816V14.944C204.023 17.0773 203.98 19.424 203.895 21.984C203.852 24.544 203.767 27.104 203.639 29.664C203.553 32.224 203.447 34.592 203.319 36.768C203.319 36.8533 203.319 37.024 203.319 37.28C203.276 37.536 203.255 37.8133 203.255 38.112C203.255 38.368 203.276 38.5813 203.319 38.752C203.447 39.2213 203.745 39.6053 204.215 39.904C204.727 40.16 205.239 40.3947 205.751 40.608C206.305 40.8213 206.796 41.0773 207.223 41.376C207.692 41.632 207.927 41.9947 207.927 42.464ZM204.023 5.344C204.492 6.368 204.556 7.28533 204.215 8.096C203.916 8.90666 203.319 9.46133 202.423 9.76C201.527 10.0587 200.417 9.99467 199.095 9.568C198.327 8.544 198.028 7.56266 198.199 6.624C198.369 5.68533 198.753 4.93867 199.351 4.384C200.033 3.78667 200.844 3.50933 201.783 3.552C202.764 3.59466 203.511 4.192 204.023 5.344ZM244.353 19.04C244.822 20.2773 244.715 21.28 244.033 22.048C243.393 22.7733 242.625 23.1573 241.729 23.2C240.961 23.2 240.257 22.9013 239.617 22.304C238.977 21.7067 238.721 20.7253 238.849 19.36C238.081 18.08 237.014 17.2907 235.649 16.992C234.326 16.6507 232.939 16.672 231.489 17.056C230.081 17.44 228.843 18.016 227.777 18.784C226.966 19.8933 226.347 21.2587 225.921 22.88C225.494 24.5013 225.281 26.208 225.281 28C225.238 30.0907 225.494 32.16 226.049 34.208C226.646 36.2133 227.521 37.8773 228.673 39.2C229.569 40.224 230.657 40.9493 231.937 41.376C233.217 41.8027 234.667 41.8027 236.289 41.376C237.313 41.12 238.187 40.6293 238.913 39.904C239.681 39.136 240.427 38.368 241.153 37.6C241.921 36.7893 242.795 36.2133 243.777 35.872C244.118 36.512 244.161 37.3867 243.905 38.496C243.649 39.5627 243.286 40.3947 242.817 40.992C242.518 41.3333 242.027 41.6107 241.345 41.824C240.662 42.0373 240.065 42.3147 239.553 42.656C238.87 43.0827 238.337 43.5093 237.953 43.936C237.611 44.3627 237.227 44.6187 236.801 44.704C235.819 44.9173 234.689 44.9813 233.409 44.896C232.171 44.8107 230.977 44.6187 229.825 44.32C228.715 44.0213 227.841 43.7227 227.201 43.424C225.707 42.656 224.385 41.44 223.233 39.776C222.123 38.0693 221.27 36.192 220.673 34.144C220.118 32.0533 219.883 30.0693 219.969 28.192C220.182 25.0347 221.099 22.304 222.72 20C224.342 17.696 226.283 16.0107 228.545 14.944C230.379 14.0907 232.257 13.664 234.177 13.664C235.115 13.664 236.033 13.7707 236.929 13.984C237.867 14.1547 238.763 14.4747 239.617 14.944C241.409 15.8827 242.987 17.248 244.353 19.04ZM282.999 41.824C283.169 42.1227 283.233 42.3573 283.191 42.528C283.148 42.656 283.063 42.784 282.935 42.912C282.892 43.04 282.828 43.168 282.743 43.296C282.7 43.3813 282.7 43.5307 282.743 43.744C281.548 44.3413 280.375 44.5333 279.223 44.32C278.071 44.1493 277.111 43.6587 276.343 42.848C275.575 41.9947 275.169 40.9067 275.127 39.584C273.932 40.5227 272.673 41.4187 271.351 42.272C270.028 43.0827 268.577 43.7653 266.999 44.32C264.823 44.2773 262.967 43.7013 261.431 42.592C259.895 41.44 258.679 40.0107 257.783 38.304C257.612 36.0853 257.825 34.2507 258.423 32.8C259.063 31.3067 259.937 30.112 261.047 29.216C262.711 27.8507 264.823 26.976 267.383 26.592C269.943 26.1653 272.609 25.8453 275.383 25.632C275.468 23.84 275.404 22.1973 275.191 20.704C274.977 19.168 274.508 17.952 273.783 17.056C273.1 16.1173 272.012 15.6267 270.519 15.584C269.196 15.5413 267.98 15.9467 266.871 16.8C265.804 17.6107 264.908 18.5493 264.183 19.616C264.396 20.0853 264.503 20.704 264.503 21.472C264.503 22.24 264.396 22.8587 264.183 23.328C262.647 23.7547 261.537 23.712 260.855 23.2C260.172 22.688 259.788 22.0053 259.703 21.152C259.575 19.4453 260.236 17.9307 261.687 16.608C262.455 15.9253 263.287 15.3707 264.183 14.944C265.463 14.304 266.871 13.856 268.407 13.6C269.985 13.344 271.521 13.3013 273.015 13.472C274.508 13.6427 275.809 14.1333 276.919 14.944C277.516 15.328 278.007 15.8187 278.391 16.416C278.86 17.0133 279.244 17.9093 279.543 19.104C279.841 20.256 279.991 21.2587 279.991 22.112C279.991 23.3067 279.969 24.5227 279.927 25.76C279.884 26.9547 279.82 28.192 279.735 29.472C279.649 31.136 279.564 32.864 279.479 34.656C279.436 36.4053 279.457 38.2187 279.543 40.096C279.756 40.736 280.247 41.0987 281.015 41.184C281.783 41.2693 282.444 41.4827 282.999 41.824ZM275.319 28.064C274.252 28.3627 273.079 28.64 271.799 28.896C270.519 29.1093 269.26 29.3653 268.023 29.664C266.828 29.92 265.74 30.3253 264.759 30.88C263.82 31.392 263.116 32.1173 262.647 33.056C262.519 34.7627 262.604 36.2773 262.903 37.6C263.201 38.88 263.777 39.8827 264.631 40.608C266.039 40.7787 267.447 40.6933 268.855 40.352C270.305 39.968 271.585 39.3707 272.695 38.56C273.804 37.7067 274.551 36.704 274.935 35.552C275.148 34.912 275.276 34.1013 275.319 33.12C275.404 32.096 275.425 31.1147 275.383 30.176C275.383 29.1947 275.361 28.4907 275.319 28.064ZM309.052 42.208C308.497 42.6773 307.814 43.0187 307.003 43.232C306.193 43.4453 305.297 43.5947 304.316 43.68C303.889 43.68 303.441 43.7013 302.972 43.744C302.545 43.744 302.118 43.7227 301.692 43.68C300.796 43.68 299.942 43.7013 299.132 43.744C298.321 43.7867 297.638 43.9147 297.084 44.128C296.316 43.9147 295.932 43.424 295.932 42.656C295.974 41.888 296.209 41.184 296.635 40.544C297.19 40.5867 297.681 40.5653 298.108 40.48C298.534 40.352 298.94 40.2027 299.324 40.032C299.58 39.9467 299.772 39.8827 299.9 39.84C299.985 35.8293 300.028 31.712 300.028 27.488C300.07 23.264 300.049 19.0827 299.964 14.944C299.921 13.408 299.878 11.872 299.836 10.336C299.793 8.8 299.729 7.30666 299.644 5.856C299.516 5.856 299.324 5.856 299.068 5.856C298.854 5.856 298.598 5.83467 298.3 5.792C297.916 5.792 297.51 5.792 297.084 5.792C296.7 5.74933 296.316 5.728 295.932 5.728C295.59 5.38667 295.42 5.13067 295.42 4.96C295.462 4.74667 295.548 4.55467 295.676 4.384C295.761 4.256 295.825 4.128 295.868 4C295.91 3.872 295.932 3.72267 295.932 3.552C296.444 3.168 297.062 2.912 297.788 2.784C298.513 2.61333 299.238 2.44267 299.964 2.272C300.689 2.10133 301.286 1.824 301.756 1.44C302.054 1.52533 302.31 1.632 302.524 1.76C302.78 1.84533 303.014 1.97333 303.228 2.144C303.526 2.31466 303.868 2.48533 304.252 2.656C304.636 2.82667 305.105 2.89067 305.66 2.848C304.934 4.46933 304.465 6.32533 304.252 8.416C304.081 10.5067 303.996 12.6827 303.996 14.944C303.996 16.0107 304.017 17.0987 304.06 18.208C304.102 19.2747 304.124 20.32 304.124 21.344C304.124 22.1547 304.124 22.9653 304.124 23.776C304.166 24.5867 304.188 25.376 304.188 26.144C304.23 28.3627 304.252 30.5173 304.252 32.608C304.294 34.656 304.23 36.7253 304.06 38.816C304.401 39.4133 304.913 39.84 305.596 40.096C306.278 40.3093 306.961 40.544 307.644 40.8C308.326 41.0133 308.796 41.4827 309.052 42.208ZM336.489 42.208C335.934 42.6773 335.252 43.0187 334.441 43.232C333.63 43.4453 332.734 43.5947 331.753 43.68C331.326 43.68 330.878 43.7013 330.409 43.744C329.982 43.744 329.556 43.7227 329.129 43.68C328.233 43.68 327.38 43.7013 326.569 43.744C325.758 43.7867 325.076 43.9147 324.521 44.128C323.753 43.9147 323.369 43.424 323.369 42.656C323.412 41.888 323.646 41.184 324.073 40.544C324.628 40.5867 325.118 40.5653 325.545 40.48C325.972 40.352 326.377 40.2027 326.761 40.032C327.017 39.9467 327.209 39.8827 327.337 39.84C327.422 35.8293 327.465 31.712 327.465 27.488C327.508 23.264 327.486 19.0827 327.401 14.944C327.358 13.408 327.316 11.872 327.273 10.336C327.23 8.8 327.166 7.30666 327.081 5.856C326.953 5.856 326.761 5.856 326.505 5.856C326.292 5.856 326.036 5.83467 325.737 5.792C325.353 5.792 324.948 5.792 324.521 5.792C324.137 5.74933 323.753 5.728 323.369 5.728C323.028 5.38667 322.857 5.13067 322.857 4.96C322.9 4.74667 322.985 4.55467 323.113 4.384C323.198 4.256 323.262 4.128 323.305 4C323.348 3.872 323.369 3.72267 323.369 3.552C323.881 3.168 324.5 2.912 325.225 2.784C325.95 2.61333 326.676 2.44267 327.401 2.272C328.126 2.10133 328.724 1.824 329.193 1.44C329.492 1.52533 329.748 1.632 329.961 1.76C330.217 1.84533 330.452 1.97333 330.665 2.144C330.964 2.31466 331.305 2.48533 331.689 2.656C332.073 2.82667 332.542 2.89067 333.097 2.848C332.372 4.46933 331.902 6.32533 331.689 8.416C331.518 10.5067 331.433 12.6827 331.433 14.944C331.433 16.0107 331.454 17.0987 331.497 18.208C331.54 19.2747 331.561 20.32 331.561 21.344C331.561 22.1547 331.561 22.9653 331.561 23.776C331.604 24.5867 331.625 25.376 331.625 26.144C331.668 28.3627 331.689 30.5173 331.689 32.608C331.732 34.656 331.668 36.7253 331.497 38.816C331.838 39.4133 332.35 39.84 333.033 40.096C333.716 40.3093 334.398 40.544 335.081 40.8C335.764 41.0133 336.233 41.4827 336.489 42.208ZM379.479 16.8C379.265 17.3547 378.903 17.7173 378.391 17.888C377.921 18.016 377.388 18.144 376.791 18.272C376.236 18.3573 375.724 18.6133 375.255 19.04C374.828 19.4667 374.572 19.8507 374.487 20.192C374.401 20.5333 374.209 21.088 373.911 21.856C373.441 23.136 372.78 24.6933 371.927 26.528C371.116 28.32 370.199 30.2613 369.175 32.352C368.193 34.4 367.191 36.4907 366.167 38.624C365.143 40.7147 364.161 42.6987 363.223 44.576C362.327 46.496 361.559 48.1387 360.919 49.504C360.577 50.3147 360.193 51.0827 359.767 51.808C359.34 52.576 358.764 53.1947 358.039 53.664C357.015 54.3467 355.713 54.56 354.135 54.304C353.239 54.1333 352.577 53.7707 352.151 53.216C351.767 52.6613 351.127 52.1707 350.231 51.744C350.188 50.848 350.337 50.1013 350.679 49.504C351.02 48.9493 351.468 48.5227 352.023 48.224C352.748 47.8827 353.516 47.776 354.327 47.904C355.18 48.0747 355.884 48.5013 356.439 49.184C357.164 48.7573 357.868 47.968 358.551 46.816C359.276 45.7067 359.916 44.5333 360.471 43.296C361.025 42.0587 361.473 41.0347 361.815 40.224C361.687 39.84 361.473 39.5627 361.175 39.392C360.876 39.2213 360.599 39.008 360.343 38.752C359.148 35.2107 357.847 31.776 356.439 28.448C355.031 25.0773 353.665 21.6853 352.343 18.272C351.575 18.3147 350.849 18.3147 350.167 18.272C349.484 18.2293 348.908 18.08 348.439 17.824C348.14 17.4827 348.012 17.2267 348.055 17.056C348.14 16.8427 348.247 16.6507 348.375 16.48C348.46 16.3947 348.545 16.288 348.631 16.16C348.716 15.9893 348.737 15.7973 348.695 15.584C348.908 15.584 349.121 15.584 349.335 15.584C349.591 15.5413 349.847 15.4987 350.103 15.456C350.913 15.3707 351.831 15.2853 352.855 15.2C353.879 15.1147 354.903 15.0933 355.927 15.136C357.249 15.1787 358.444 15.328 359.51 15.584C360.62 15.84 361.388 16.3307 361.815 17.056C361.132 17.3547 360.407 17.6533 359.639 17.952C358.913 18.208 358.124 18.4427 357.271 18.656C358.252 21.5147 359.297 24.2667 360.407 26.912C361.559 29.5147 362.625 32.2453 363.607 35.104C365.228 32.7147 366.593 30.1333 367.703 27.36C368.855 24.544 369.985 21.7067 371.095 18.848C370.924 18.6773 370.668 18.592 370.327 18.592C369.985 18.5493 369.623 18.528 369.239 18.528C368.897 18.5707 368.556 18.592 368.215 18.592C367.873 18.5493 367.596 18.4427 367.383 18.272C367.383 18.1013 367.361 17.952 367.319 17.824C367.319 17.6533 367.297 17.4827 367.255 17.312C367.169 16.9707 367.127 16.672 367.127 16.416C367.169 16.1173 367.383 15.84 367.767 15.584C368.236 15.584 368.663 15.584 369.047 15.584C369.473 15.5413 369.9 15.52 370.327 15.52C372.161 15.4773 373.783 15.4987 375.191 15.584C376.641 15.6693 378.071 16.0747 379.479 16.8Z" fill="white"/>
</svg>
